<svg width="1024" height="1024" viewBox="0 0 1024 1024" fill="none" xmlns="http://www.w3.org/2000/svg">
<path d="M0 341.333C0 152.82 152.82 0 341.333 0H682.667C871.18 0 1024 152.82 1024 341.333V682.667C1024 871.18 871.18 1024 682.667 1024H341.333C152.82 1024 0 871.18 0 682.667V341.333Z" fill="url(#paint0_linear_95_231)"/>
<path d="M128 384C128 242.615 242.615 128 384 128H640C781.385 128 896 242.615 896 384V640C896 781.385 781.385 896 640 896H384C242.615 896 128 781.385 128 640V384Z" fill="white"/>
<rect x="219" y="390" width="243" height="243" rx="121.5" fill="black"/>
<rect x="562" y="465" width="243" height="93" rx="46.5" fill="black"/>
<defs>
<linearGradient id="paint0_linear_95_231" x1="0" y1="512" x2="1024" y2="512" gradientUnits="userSpaceOnUse">
<stop stop-color="#FF5950"/>
<stop offset="0.2" stop-color="#ECB63D"/>
<stop offset="0.4" stop-color="#87F06F"/>
<stop offset="0.6" stop-color="#66E0BA"/>
<stop offset="0.8" stop-color="#40C5E9"/>
<stop offset="1" stop-color="#43B5FF"/>
</linearGradient>
</defs>
</svg>
